HIERARCHY
ROOT pelvis
{
  OFFSET 0 100 0
  CHANNELS 6 Xposition Yposition Zposition Zrotation Xrotation Yrotation
  JOINT pelvis_right_femur
  {
    OFFSET -10.78128 -3.44521 -0.5502486
    CHANNELS 3 Zrotation Xrotation Yrotation
    JOINT right_femur_tibia
    {
      OFFSET -0.8047443 -44.0398 -0.1307829
      CHANNELS 3 Zrotation Xrotation Yrotation
      JOINT right_tibia_foot
      {
        OFFSET 3.006224 -47.83518 -5
        CHANNELS 3 Zrotation Xrotation Yrotation
        End Site
        {
          OFFSET 0 -5 15
        }
      }
    }
  }
  JOINT pelvis_left_femur
  {
    OFFSET 10.78128 -3.44521 -0.5502486
    CHANNELS 3 Zrotation Xrotation Yrotation
    JOINT left_femur_tibia
    {
      OFFSET 0.8047443 -44.0398 -0.1307829
      CHANNELS 3 Zrotation Xrotation Yrotation
      JOINT left_tibia_foot
      {
        OFFSET -4.370144 -48.10324 -4.275266
        CHANNELS 3 Zrotation Xrotation Yrotation
        End Site
        {
          OFFSET 0 -5 15
        }
      }
    }
  }
  JOINT pelvis_spine1
  {
    OFFSET 0 6.468898 -3.129235
    CHANNELS 3 Zrotation Xrotation Yrotation
    JOINT spine1
    {
      OFFSET 0 23.15396 4.99043
      CHANNELS 3 Zrotation Xrotation Yrotation
      JOINT spine2
      {
        OFFSET 0 20.79997 -5.064912
        CHANNELS 3 Zrotation Xrotation Yrotation
        JOINT neck
        {
          OFFSET 0 14.38658 9.616178
          CHANNELS 3 Zrotation Xrotation Yrotation
          End Site
          {
            OFFSET 0 20 0
          }
        }
      }
      JOINT right_manubrium
      {
        OFFSET -5.722621 16.35077 3.967754
        CHANNELS 3 Zrotation Xrotation Yrotation
        JOINT right_clavicle
        {
          OFFSET -13.16364 1.694482 -4.693211
          CHANNELS 3 Zrotation Xrotation Yrotation
          JOINT right_humerus
          {
            OFFSET -28.5034 -0.3100689 -2.792744
            CHANNELS 3 Zrotation Xrotation Yrotation
            JOINT right_radius
            {
              OFFSET -25.15693 0.02248979 -1.271978
              CHANNELS 3 Zrotation Xrotation Yrotation
              End Site
              {
                OFFSET -15 0 0
              }
            }
          }
        }
      }
      JOINT left_manubrium
      {
        OFFSET 5.722621 16.35077 3.967754
        CHANNELS 3 Zrotation Xrotation Yrotation
        JOINT left_clavicle
        {
          OFFSET 13.16364 1.694482 -4.693211
          CHANNELS 3 Zrotation Xrotation Yrotation
          JOINT left_humerus
          {
            OFFSET 29.39168 -1.063119 -2.237045
            CHANNELS 3 Zrotation Xrotation Yrotation
            JOINT left_radius
            {
              OFFSET 24.59957 -0.9528479 0.9047498
              CHANNELS 3 Zrotation Xrotation Yrotation
              End Site
              {
                OFFSET 15 -0 -0
              }
            }
          }
        }
      }
    }
  }
}
MOTION
Frames: 17
Frame Time: 0.0416666666667
0 103.5113 0 -0.3410787 1.020622 -0.2169017 5.599047 -20.87433 10.90815 -0 35.21173 -0 -3.878272 -14.86074 -2.84061 -6.317727 8.057579 -22.21805 -0 5.593175 -0 8.824602 -19.03882 28.13353 -3.236133 -4.694842 5.296283 2.887931 10.00596 -8.671109 1.803286 20.37133 7.024418 3.733604 -25.18872 9.800035 7.177249 -19.93738 11.72009 83.15933 33.37228 -18.19374 -0 0 20.18565 -9.191715 9.862071 4.258233 8.569741 -20.54215 1.515629 -96.1106 21.67137 22.90123 0 0 -8.260555 11.78069 18.66805 -0.18244
0.3069357 102.7279 1.518253 -0.449838 1.339662 -0.356201 5.802907 -22.01178 10.48161 -0 33.67132 -0 -4.178667 -14.17553 -2.754997 -6.196472 8.545795 -21.73097 -0 5.384918 -0 8.338624 -19.62613 27.35268 -3.135322 -4.45863 5.155908 2.960611 9.912917 -8.685716 1.742618 20.30516 7.023667 3.684196 -25.40751 9.78396 7.0221 -19.8132 11.6729 83.44201 33.4238 -18.48875 -0 0 19.59929 -9.137716 9.812316 4.28639 8.564934 -20.75375 1.347153 -95.72727 21.74497 22.56226 0 0 -9.358856 11.8079 18.46652 -0.1878492
0.6059979 101.7844 3.77797 -0.7293982 2.350958 -0.2713521 6.374655 -25.74779 9.131424 -0 28.971 -0 -4.973919 -12.24913 -2.284374 -5.986302 10.40845 -20.39753 -0 5.150996 -0 7.924572 -20.30871 25.07433 -2.91796 -3.431352 4.579706 3.276611 9.499059 -8.661589 1.471423 20.16087 7.258803 3.611834 -26.07703 9.865191 6.575309 -19.18175 11.60068 84.40456 34.34132 -19.23962 -0 0 17.08745 -8.565213 9.67262 4.649612 8.301745 -21.03314 0.6809221 -93.7062 21.65472 20.6977 0 0 -13.56817 13.06479 16.87502 -1.476721
0.8742903 100.7186 6.529527 -0.9228309 2.725216 -0.04734917 6.667158 -27.75299 8.368783 -0 26.16385 -0 -5.790902 -11.13308 -2.310266 -5.776996 11.7998 -19.43179 -0 5.524515 -0 7.106149 -20.73365 23.45059 -2.672684 -2.788248 4.198146 3.377259 9.256372 -8.591664 1.395764 20.21074 7.164268 3.36562 -26.38665 9.879831 6.023195 -18.7988 11.40709 85.44685 34.65672 -19.92138 -0 0 15.35952 -8.089121 9.40254 4.589587 8.004959 -21.29567 0.1229902 -92.38483 21.96019 19.47319 0 0 -16.39872 13.34268 15.99529 -1.612971
1.131746 99.60337 9.760779 -1.147116 3.312035 0.2639653 7.012008 -29.756 7.712458 -0 23.6328 -0 -6.039743 -9.906188 -2.040189 -5.628773 12.86173 -18.61017 -0 6.495857 -0 6.644462 -20.64573 21.91482 -2.509414 -2.281375 3.83363 3.589131 9.014444 -8.666322 1.226122 20.03837 7.395634 3.446987 -26.64613 9.87655 5.932431 -18.24469 11.41687 85.90801 35.23469 -20.43038 -0 0 13.90949 -7.94965 9.538827 4.911699 7.873093 -21.39386 -0.1454888 -91.16168 21.71504 18.21304 0 0 -18.50126 13.93383 14.92052 -2.288808
1.391049 98.45633 13.44727 -1.365511 3.918959 0.6358221 7.332175 -31.47867 7.09341 -0 21.33308 -0 -6.089318 -8.550215 -1.666611 -5.526693 13.67682 -17.81329 -0 7.857213 -0 6.181734 -20.38766 20.45986 -2.355661 -1.919667 3.542655 3.798993 8.860892 -8.800336 1.016707 19.79179 7.729572 3.64896 -26.8937 9.841324 5.982661 -17.71985 11.51115 86.25136 35.8078 -20.99193 -0 0 12.61254 -8.051927 9.791304 5.333281 7.819505 -21.54177 -0.3263988 -90.10048 21.29321 17.09883 0 0 -20.35266 14.45357 13.86465 -2.94974
1.657977 97.29679 17.63329 -1.619521 4.503639 1.062626 7.632738 -33.00805 6.319731 -0 18.87713 -0 -6.13107 -6.786726 -1.200735 -5.405019 14.35891 -16.82785 -0 9.916648 -0 5.312319 -20.06997 18.73628 -2.132373 -1.663677 3.278644 3.986071 8.799597 -8.984902 0.7679361 19.49846 8.123961 3.93832 -27.12597 9.733798 6.041875 -17.1911 11.6564 86.66279 36.13906 -21.74911 -0 0 11.27775 -8.505574 10.12796 5.846294 7.827878 -21.85187 -0.5194541 -89.15074 20.80491 16.07017 0 0 -22.18043 14.71987 12.90359 -3.376529
1.930387 96.15924 22.35388 -1.907143 4.948199 1.528333 7.91541 -34.12817 5.415883 -0 16.38812 -0 -6.29755 -4.756612 -0.7316346 -5.238364 14.90238 -15.65862 -0 12.95777 -0 3.943572 -19.60656 16.75303 -1.804429 -1.520549 3.040375 4.11704 8.840186 -9.190767 0.5114284 19.22757 8.499685 4.250336 -27.29257 9.542917 6.022923 -16.67604 11.81265 87.23365 36.10565 -22.71578 -0 0 9.896407 -9.256923 10.49559 6.364377 7.839067 -22.32387 -0.7793956 -88.35279 20.4062 15.18067 0 0 -23.94892 14.61511 12.15417 -3.392942
2.201948 95.1094 27.62173 -2.208064 5.162162 1.99946 8.195737 -34.59179 4.433907 -0 14.03723 -0 -6.646136 -2.635734 -0.2974973 -5.02363 15.18711 -14.35114 -0 17.33794 -0 2.179179 -18.81665 14.6275 -1.363733 -1.507357 2.84964 4.175571 9.009789 -9.397277 0.2648574 19.0294 8.817318 4.553771 -27.35578 9.26593 5.895088 -16.20256 11.97509 87.96851 35.66701 -23.84922 -0 0 8.503841 -10.26403 10.88644 6.854995 7.79312 -22.92579 -1.141453 -87.7541 20.1623 14.5066 0 0 -25.55957 14.12508 11.66957 -2.950239
2.462249 94.23953 33.40207 -2.470769 5.014284 2.416525 8.467056 -34.05151 3.438537 -0 12.03756 -0 -7.217382 -0.6640878 0.05928037 -4.76274 14.9676 -12.97151 -0 23.3735 -0 0.2738526 -17.51302 12.60113 -0.8259587 -1.634521 2.755705 4.139345 9.35877 -9.566699 0.05649355 18.972 9.019773 4.80276 -27.26611 8.905268 5.614459 -15.83943 12.14601 88.83655 34.76628 -25.02772 -0 0 7.196637 -11.49459 11.29559 7.301036 7.616906 -23.60588 -1.653801 -87.42316 20.09258 14.16373 0 0 -26.83147 13.28658 11.49179 -2.052989
2.696006 93.65509 39.59126 -2.61355 4.33698 2.694675 8.688549 -32.08758 2.485044 -0 10.55648 -0 -8.026458 0.8804376 0.28693 -4.449444 13.87098 -11.58071 -0 31.20044 -0 -1.396035 -15.56153 11.00064 -0.2338065 -1.890426 2.832714 3.979257 9.956711 -9.640699 -0.07223451 19.13388 9.024866 4.931523 -26.95789 8.465979 5.113011 -15.70098 12.33236 89.77083 33.3161 -26.03467 -0 0 6.144042 -12.94331 11.72563 7.714441 7.237365 -24.2946 -2.376366 -87.43741 20.13716 14.29594 0 0 -27.50206 12.21209 11.64558 -0.7979053
2.884099 93.44039 46.00017 -2.541164 2.966306 2.741908 8.783793 -28.29219 1.628501 -0 9.657384 -0 -9.029544 1.701609 0.3190283 -4.056787 11.45121 -10.23164 -0 40.43874 -0 -2.399502 -12.9544 10.16962 0.3351325 -2.22484 3.167395 3.664408 10.8669 -9.543099 -0.06694871 19.57641 8.725862 4.854882 -26.36051 7.959454 4.311178 -15.94896 12.54003 90.66558 31.24352 -26.54985 -0 0 5.6184 -14.6138 12.1846 8.140437 6.608126 -24.89199 -3.350364 -87.85887 20.13217 15.05799 0 0 -27.23511 11.11595 12.12332 0.5744133
3.011278 93.59841 52.37042 -2.195636 0.8379331 2.502782 8.665423 -22.47199 0.9261501 -0 9.234229 -0 -10.08418 1.587321 0.09917618 -3.524524 7.380173 -8.953117 -0 49.76208 -0 -2.435141 -9.882258 10.31129 0.7785232 -2.547332 3.818027 3.176075 12.09552 -9.205547 0.1215887 20.28609 8.023799 4.493626 -25.43321 7.404375 3.15662 -16.76695 12.76725 91.40611 28.56774 -26.21878 -0 0 5.980274 -16.49881 12.67848 8.656444 5.759011 -25.27746 -4.541812 -88.67782 19.8225 16.55748 0 0 -25.72034 10.28887 12.86663 1.668292
3.083199 93.99294 58.45284 -1.635211 -1.871716 2.005266 8.307541 -14.95523 0.4454543 -0 9.043643 -0 -10.95363 0.5347552 -0.367607 -2.755631 1.791137 -7.743113 -0 56.75402 -0 -1.579231 -6.759559 11.32316 1.017254 -2.758369 4.742729 2.536059 13.52145 -8.622412 0.4977025 21.11275 6.89748 3.822935 -24.22856 6.827776 1.691389 -18.28294 12.99437 91.9212 25.50429 -24.82236 -0 0 7.564315 -18.52264 13.19013 9.328669 4.833357 -25.34898 -5.77921 -89.75779 18.98775 18.76931 0 0 -22.87844 9.956623 13.75432 2.06831
3.141647 94.36343 64.13057 -1.070954 -4.668974 1.350813 7.822467 -6.787224 0.245454 -0 8.875687 -0 -11.40427 -1.228061 -0.9715962 -1.656693 -4.47481 -6.594038 -0 58.74428 -0 -0.3660952 -4.135114 12.79417 1.066309 -2.805054 5.750656 1.839354 14.87228 -7.903764 0.9767304 21.7845 5.486514 2.919982 -22.94678 6.269401 0.1084964 -20.44729 13.18367 92.1928 22.51801 -22.46739 -0 0 10.43841 -20.47197 13.66282 10.13753 4.047921 -25.07973 -6.766115 -90.86261 17.65165 21.47925 0 0 -19.07628 10.07537 14.61046 1.62895
3.25115 94.44675 69.47863 -0.7647399 -6.90603 0.6390959 7.43438 0.5662822 0.3166807 -0 8.68476 -0 -11.35686 -3.402187 -1.532837 -0.2471309 -10.1731 -5.546064 -0 54.6592 -0 0.5240075 -2.446328 14.2421 1.044204 -2.704167 6.574445 1.243509 15.82834 -7.244362 1.397349 22.06426 4.094706 1.958468 -21.89242 5.786426 -1.28439 -22.95147 13.30008 92.18653 20.19802 -19.60801 -0 0 14.18158 -22.02509 14.02112 10.96065 3.564027 -24.53764 -7.233162 -91.79521 16.16685 24.31649 0 0 -15.10553 10.29465 15.24687 0.6814599
3.455196 94.10227 74.67531 -0.8251188 -8.157135 -0.07123262 7.306452 6.026272 0.5513814 -0 8.467503 -0 -10.93518 -5.784837 -1.908336 1.259419 -14.46825 -4.69429 -0 46.18788 -0 0.7505223 -1.76367 15.386 1.065371 -2.502088 7.056398 0.8761091 16.20783 -6.784874 1.624284 21.93352 3.040009 1.128144 -21.30027 5.441018 -2.226051 -25.31457 13.33062 91.82334 18.94644 -16.80722 -0 0 17.98314 -22.94576 14.2169 11.67254 3.393602 -23.83706 -7.122762 -92.51189 15.00504 26.86991 0 0 -11.79653 10.21837 15.51598 -0.1420041
